<svg xmlns="http://www.w3.org/2000/svg" viewBox="0 0 24 24" fill="#ff2c5a">
  <path d="M22.062 3.409c-1.257-1.257-2.922-1.945-4.699-1.945s-3.445.692-4.704 1.95l-0.657 0.657-0.667-0.667c-1.257-1.257-2.932-1.955-4.709-1.955-1.772 0-3.441 0.692-4.694 1.945-1.257 1.257-1.95 2.927-1.945 4.704 0 1.777 0.697 3.441 1.955 4.699l9.562 9.562c0.132 0.132 0.31 0.204 0.484 0.204 0.173 0 0.351-0.066 0.484-0.199l9.582-9.547c1.257-1.257 1.95-2.927 1.95-4.704 0-1.777-0.687-3.447-1.945-4.704zM21.095 11.845l-9.1 9.064-9.079-9.079c-0.998-0.998-1.548-2.322-1.548-3.732s0.545-2.734 1.543-3.727c0.993-0.993 2.317-1.543 3.722-1.543 1.41 0 2.739 0.55 3.737 1.548l1.151 1.151c0.27 0.27 0.703 0.27 0.973 0l1.141-1.141c0.998-0.998 2.327-1.548 3.732-1.548 1.405 0 2.729 0.55 3.727 1.543 0.998 0.998 1.543 2.322 1.543 3.732 0 1.41-0.55 2.734-1.543 3.732z"/>
</svg>