<svg width="24" height="25" viewBox="0 0 24 25" fill="none" xmlns="http://www.w3.org/2000/svg">
<mask id="mask0_792_7517" style="mask-type:alpha" maskUnits="userSpaceOnUse" x="0" y="0" width="24" height="25">
<rect y="0.5" width="24" height="24" fill="#D9D9D9"/>
</mask>
<g mask="url(#mask0_792_7517)">
<path d="M16.6108 21.5C15.9473 21.5 15.3847 21.2682 14.923 20.8045C14.4615 20.3408 14.2308 19.7778 14.2308 19.1155C14.2308 19.0155 14.275 18.7629 14.3635 18.3577L7.1655 14.0845C6.95 14.3345 6.68567 14.5303 6.3725 14.672C6.05917 14.8137 5.7235 14.8845 5.3655 14.8845C4.70833 14.8845 4.14983 14.6506 3.69 14.1827C3.23 13.7147 3 13.1538 3 12.5C3 11.8462 3.23 11.2853 3.69 10.8173C4.14983 10.3494 4.70833 10.1155 5.3655 10.1155C5.7235 10.1155 6.05917 10.1863 6.3725 10.328C6.68567 10.4697 6.95 10.6655 7.1655 10.9155L14.3635 6.6615C14.3173 6.532 14.2837 6.4035 14.2625 6.276C14.2413 6.14833 14.2308 6.01783 14.2308 5.8845C14.2308 5.22217 14.463 4.65917 14.9275 4.1955C15.3922 3.73183 15.9563 3.5 16.62 3.5C17.2837 3.5 17.8462 3.73225 18.3077 4.19675C18.7692 4.66142 19 5.22558 19 5.88925C19 6.55275 18.7682 7.11533 18.3045 7.577C17.8408 8.0385 17.2778 8.26925 16.6155 8.26925C16.2538 8.26925 15.9205 8.19517 15.6155 8.047C15.3103 7.899 15.05 7.7 14.8345 7.45L7.6365 11.723C7.68267 11.8525 7.71633 11.9811 7.7375 12.1088C7.75867 12.2362 7.76925 12.3667 7.76925 12.5C7.76925 12.6333 7.75867 12.7638 7.7375 12.8912C7.71633 13.0189 7.68267 13.1475 7.6365 13.277L14.8345 17.55C15.05 17.3 15.3103 17.101 15.6155 16.953C15.9205 16.8048 16.2538 16.7308 16.6155 16.7308C17.2778 16.7308 17.8408 16.963 18.3045 17.4275C18.7682 17.8922 19 18.4563 19 19.12C19 19.7837 18.7678 20.3463 18.3033 20.8078C17.8386 21.2693 17.2744 21.5 16.6108 21.5ZM16.6155 20.5C17.0077 20.5 17.3365 20.3673 17.602 20.102C17.8673 19.8365 18 19.5077 18 19.1155C18 18.7232 17.8673 18.3943 17.602 18.1288C17.3365 17.8634 17.0077 17.7308 16.6155 17.7308C16.2232 17.7308 15.8943 17.8634 15.6288 18.1288C15.3634 18.3943 15.2308 18.7232 15.2308 19.1155C15.2308 19.5077 15.3634 19.8365 15.6288 20.102C15.8943 20.3673 16.2232 20.5 16.6155 20.5ZM5.3655 13.8845C5.76317 13.8845 6.0965 13.7518 6.3655 13.4865C6.63467 13.2212 6.76925 12.8923 6.76925 12.5C6.76925 12.1077 6.63467 11.7788 6.3655 11.5135C6.0965 11.2482 5.76317 11.1155 5.3655 11.1155C4.9785 11.1155 4.65417 11.2482 4.3925 11.5135C4.13083 11.7788 4 12.1077 4 12.5C4 12.8923 4.13083 13.2212 4.3925 13.4865C4.65417 13.7518 4.9785 13.8845 5.3655 13.8845ZM16.6155 7.26925C17.0077 7.26925 17.3365 7.13658 17.602 6.87125C17.8673 6.60575 18 6.27683 18 5.8845C18 5.49233 17.8673 5.1635 17.602 4.898C17.3365 4.63267 17.0077 4.5 16.6155 4.5C16.2232 4.5 15.8943 4.63267 15.6288 4.898C15.3634 5.1635 15.2308 5.49233 15.2308 5.8845C15.2308 6.27683 15.3634 6.60575 15.6288 6.87125C15.8943 7.13658 16.2232 7.26925 16.6155 7.26925Z" fill="#1C1B1F"/>
</g>
</svg>
