{
	"asset":{
		"generator":"Khronos glTF Blender I/O v4.2.57",
		"version":"2.0"
	},
	"scene":0,
	"scenes":[
		{
			"name":"Scene",
			"nodes":[
				0,
				1,
				2,
				3
			]
		}
	],
	"nodes":[
		{
			"mesh":0,
			"name":"R1",
			"scale":[
				0.018901219591498375,
				1.0020973682403564,
				0.018901219591498375
			],
			"translation":[
				-0.00036697660107165575,
				-0.00018930435180664062,
				0
			]
		},
		{
			"mesh":1,
			"name":"L1",
			"rotation":[
				0,
				0,
				1,
				1.6292068494294654e-07
			],
			"scale":[
				0.018901219591498375,
				1.0020973682403564,
				0.018901219591498375
			],
			"translation":[
				-0.0003669755533337593,
				-0.00018918514251708984,
				0
			]
		},
		{
			"mesh":2,
			"name":"R2",
			"scale":[
				0.018901219591498375,
				1.0020973682403564,
				0.018901219591498375
			],
			"translation":[
				-0.00036697660107165575,
				-0.00018930435180664062,
				0
			]
		},
		{
			"mesh":3,
			"name":"L2",
			"rotation":[
				0,
				0,
				1,
				1.6292068494294654e-07
			],
			"scale":[
				0.018901219591498375,
				1.0020973682403564,
				0.018901219591498375
			],
			"translation":[
				-0.0003669755533337593,
				-0.00018918514251708984,
				0
			]
		}
	],
	"animations":[
		{
			"channels":[
				{
					"sampler":0,
					"target":{
						"node":0,
						"path":"rotation"
					}
				}
			],
			"name":"R1Action",
			"samplers":[
				{
					"input":16,
					"interpolation":"LINEAR",
					"output":17
				}
			]
		},
		{
			"channels":[
				{
					"sampler":0,
					"target":{
						"node":1,
						"path":"rotation"
					}
				}
			],
			"name":"L1Action",
			"samplers":[
				{
					"input":16,
					"interpolation":"LINEAR",
					"output":18
				}
			]
		},
		{
			"channels":[
				{
					"sampler":0,
					"target":{
						"node":2,
						"path":"rotation"
					}
				}
			],
			"name":"R1Action.001",
			"samplers":[
				{
					"input":16,
					"interpolation":"LINEAR",
					"output":19
				}
			]
		},
		{
			"channels":[
				{
					"sampler":0,
					"target":{
						"node":3,
						"path":"rotation"
					}
				}
			],
			"name":"L1Action.001",
			"samplers":[
				{
					"input":16,
					"interpolation":"LINEAR",
					"output":20
				}
			]
		}
	],
	"materials":[
		{
			"doubleSided":true,
			"name":"Silver",
			"pbrMetallicRoughness":{
				"baseColorFactor":[
					0.25271210074424744,
					0.25271210074424744,
					0.25271210074424744,
					1
				],
				"metallicFactor":0.8704662919044495,
				"roughnessFactor":0.1424870491027832
			}
		},
		{
			"doubleSided":true,
			"name":"Gold",
			"pbrMetallicRoughness":{
				"baseColorFactor":[
					0.8002749681472778,
					0.46827417612075806,
					0.030819091945886612,
					1
				],
				"metallicFactor":0.8601036071777344,
				"roughnessFactor":0.1683937907218933
			}
		}
	],
	"meshes":[
		{
			"name":"Cylinder",
			"primitives":[
				{
					"attributes":{
						"POSITION":0,
						"NORMAL":1,
						"TEXCOORD_0":2
					},
					"indices":3,
					"material":0
				}
			]
		},
		{
			"name":"Cylinder.001",
			"primitives":[
				{
					"attributes":{
						"POSITION":4,
						"NORMAL":5,
						"TEXCOORD_0":6
					},
					"indices":7,
					"material":0
				}
			]
		},
		{
			"name":"Cylinder.002",
			"primitives":[
				{
					"attributes":{
						"POSITION":8,
						"NORMAL":9,
						"TEXCOORD_0":10
					},
					"indices":11,
					"material":1
				}
			]
		},
		{
			"name":"Cylinder.003",
			"primitives":[
				{
					"attributes":{
						"POSITION":12,
						"NORMAL":13,
						"TEXCOORD_0":14
					},
					"indices":15,
					"material":1
				}
			]
		}
	],
	"accessors":[
		{
			"bufferView":0,
			"componentType":5126,
			"count":91562,
			"max":[
				29.85930633544922,
				0.714102566242218,
				1.660720944404602
			],
			"min":[
				0.2577814757823944,
				-0.704658031463623,
				-0.37777769565582275
			],
			"type":"VEC3"
		},
		{
			"bufferView":1,
			"componentType":5126,
			"count":91562,
			"type":"VEC3"
		},
		{
			"bufferView":2,
			"componentType":5126,
			"count":91562,
			"type":"VEC2"
		},
		{
			"bufferView":3,
			"componentType":5125,
			"count":202740,
			"type":"SCALAR"
		},
		{
			"bufferView":4,
			"componentType":5126,
			"count":91495,
			"max":[
				29.23128318786621,
				0.7062116861343384,
				1.660718321800232
			],
			"min":[
				-0.3702583312988281,
				-0.7125502228736877,
				-0.3777746260166168
			],
			"type":"VEC3"
		},
		{
			"bufferView":5,
			"componentType":5126,
			"count":91495,
			"type":"VEC3"
		},
		{
			"bufferView":6,
			"componentType":5126,
			"count":91495,
			"type":"VEC2"
		},
		{
			"bufferView":7,
			"componentType":5125,
			"count":202740,
			"type":"SCALAR"
		},
		{
			"bufferView":8,
			"componentType":5126,
			"count":103388,
			"max":[
				29.89553451538086,
				0.714102566242218,
				1.7136409282684326
			],
			"min":[
				0.2577814757823944,
				-0.7055073976516724,
				-0.37777769565582275
			],
			"type":"VEC3"
		},
		{
			"bufferView":9,
			"componentType":5126,
			"count":103388,
			"type":"VEC3"
		},
		{
			"bufferView":10,
			"componentType":5126,
			"count":103388,
			"type":"VEC2"
		},
		{
			"bufferView":11,
			"componentType":5125,
			"count":202740,
			"type":"SCALAR"
		},
		{
			"bufferView":12,
			"componentType":5126,
			"count":94416,
			"max":[
				29.377044677734375,
				0.7062116861343384,
				1.9596892595291138
			],
			"min":[
				-0.3702583312988281,
				-0.7125502228736877,
				-0.6765270233154297
			],
			"type":"VEC3"
		},
		{
			"bufferView":13,
			"componentType":5126,
			"count":94416,
			"type":"VEC3"
		},
		{
			"bufferView":14,
			"componentType":5126,
			"count":94416,
			"type":"VEC2"
		},
		{
			"bufferView":15,
			"componentType":5125,
			"count":202740,
			"type":"SCALAR"
		},
		{
			"bufferView":16,
			"componentType":5126,
			"count":120,
			"max":[
				5
			],
			"min":[
				0.041666666666666664
			],
			"type":"SCALAR"
		},
		{
			"bufferView":17,
			"componentType":5126,
			"count":120,
			"type":"VEC4"
		},
		{
			"bufferView":18,
			"componentType":5126,
			"count":120,
			"type":"VEC4"
		},
		{
			"bufferView":19,
			"componentType":5126,
			"count":120,
			"type":"VEC4"
		},
		{
			"bufferView":20,
			"componentType":5126,
			"count":120,
			"type":"VEC4"
		}
	],
	"bufferViews":[
		{
			"buffer":0,
			"byteLength":1098744,
			"byteOffset":0,
			"target":34962
		},
		{
			"buffer":0,
			"byteLength":1098744,
			"byteOffset":1098744,
			"target":34962
		},
		{
			"buffer":0,
			"byteLength":732496,
			"byteOffset":2197488,
			"target":34962
		},
		{
			"buffer":0,
			"byteLength":810960,
			"byteOffset":2929984,
			"target":34963
		},
		{
			"buffer":0,
			"byteLength":1097940,
			"byteOffset":3740944,
			"target":34962
		},
		{
			"buffer":0,
			"byteLength":1097940,
			"byteOffset":4838884,
			"target":34962
		},
		{
			"buffer":0,
			"byteLength":731960,
			"byteOffset":5936824,
			"target":34962
		},
		{
			"buffer":0,
			"byteLength":810960,
			"byteOffset":6668784,
			"target":34963
		},
		{
			"buffer":0,
			"byteLength":1240656,
			"byteOffset":7479744,
			"target":34962
		},
		{
			"buffer":0,
			"byteLength":1240656,
			"byteOffset":8720400,
			"target":34962
		},
		{
			"buffer":0,
			"byteLength":827104,
			"byteOffset":9961056,
			"target":34962
		},
		{
			"buffer":0,
			"byteLength":810960,
			"byteOffset":10788160,
			"target":34963
		},
		{
			"buffer":0,
			"byteLength":1132992,
			"byteOffset":11599120,
			"target":34962
		},
		{
			"buffer":0,
			"byteLength":1132992,
			"byteOffset":12732112,
			"target":34962
		},
		{
			"buffer":0,
			"byteLength":755328,
			"byteOffset":13865104,
			"target":34962
		},
		{
			"buffer":0,
			"byteLength":810960,
			"byteOffset":14620432,
			"target":34963
		},
		{
			"buffer":0,
			"byteLength":480,
			"byteOffset":15431392
		},
		{
			"buffer":0,
			"byteLength":1920,
			"byteOffset":15431872
		},
		{
			"buffer":0,
			"byteLength":1920,
			"byteOffset":15433792
		},
		{
			"buffer":0,
			"byteLength":1920,
			"byteOffset":15435712
		},
		{
			"buffer":0,
			"byteLength":1920,
			"byteOffset":15437632
		}
	],
	"buffers":[
		{
			"byteLength":15439552,
			"uri":"10%20Oct%20Trial.bin"
		}
	]
}
