{
	"asset":{
		"generator":"Khronos glTF Blender I/O v4.2.57",
		"version":"2.0"
	},
	"scene":0,
	"scenes":[
		{
			"name":"Scene",
			"nodes":[
				0,
				1,
				2,
				3,
				4
			]
		}
	],
	"nodes":[
		{
			"mesh":0,
			"name":"CH01_FULL (1)",
			"scale":[
				0.006831388454884291,
				0.006831404287368059,
				0.0068314047530293465
			],
			"translation":[
				-6.686881533823907e-06,
				-5.505295121110976e-05,
				-0.00022256351076066494
			]
		},
		{
			"name":"Area",
			"rotation":[
				-0.4559946358203888,
				0.07717341184616089,
				-0.07717341929674149,
				0.8832651972770691
			],
			"scale":[
				1.48308527469635,
				1.4830851554870605,
				1.4830851554870605
			],
			"translation":[
				0.35808542370796204,
				0.5669019222259521,
				0.4021327495574951
			]
		},
		{
			"name":"Area.001",
			"rotation":[
				0.2669644355773926,
				-0.43567606806755066,
				-0.09055187553167343,
				0.8548197150230408
			],
			"translation":[
				-1.235026240348816,
				-0.5804554224014282,
				0.40213239192962646
			]
		},
		{
			"mesh":1,
			"name":"CH01_FULL (1).001",
			"scale":[
				0.006831388454884291,
				0.006831404287368059,
				0.0068314047530293465
			],
			"translation":[
				-6.686881533823907e-06,
				-5.505295121110976e-05,
				-0.00022256351076066494
			]
		},
		{
			"mesh":2,
			"name":"CH01_FULL (1).002",
			"scale":[
				0.006831388454884291,
				0.006831404287368059,
				0.0068314047530293465
			],
			"translation":[
				-6.686881533823907e-06,
				-5.505295121110976e-05,
				-0.00022256351076066494
			]
		}
	],
	"animations":[
		{
			"channels":[
				{
					"sampler":0,
					"target":{
						"node":0,
						"path":"rotation"
					}
				}
			],
			"name":"CH01_FULL (1)Action",
			"samplers":[
				{
					"input":15,
					"interpolation":"LINEAR",
					"output":16
				}
			]
		},
		{
			"channels":[
				{
					"sampler":0,
					"target":{
						"node":3,
						"path":"rotation"
					}
				}
			],
			"name":"CH01_FULL (1)Action.001",
			"samplers":[
				{
					"input":15,
					"interpolation":"LINEAR",
					"output":17
				}
			]
		},
		{
			"channels":[
				{
					"sampler":0,
					"target":{
						"node":4,
						"path":"rotation"
					}
				}
			],
			"name":"CH01_FULL (1)Action.002",
			"samplers":[
				{
					"input":15,
					"interpolation":"LINEAR",
					"output":18
				}
			]
		}
	],
	"materials":[
		{
			"doubleSided":true,
			"name":"Ritik",
			"pbrMetallicRoughness":{
				"baseColorFactor":[
					0.0951475203037262,
					0.0951475203037262,
					0.0951475203037262,
					1
				],
				"roughnessFactor":0.25
			}
		}
	],
	"meshes":[
		{
			"name":"CH01_FULL (1)",
			"primitives":[
				{
					"attributes":{
						"POSITION":0,
						"NORMAL":1,
						"TEXCOORD_0":2,
						"TEXCOORD_1":3
					},
					"indices":4,
					"material":0
				}
			]
		},
		{
			"name":"CH01_FULL (1).001",
			"primitives":[
				{
					"attributes":{
						"POSITION":5,
						"NORMAL":6,
						"TEXCOORD_0":7,
						"TEXCOORD_1":8
					},
					"indices":9,
					"material":0
				}
			]
		},
		{
			"name":"CH01_FULL (1).002",
			"primitives":[
				{
					"attributes":{
						"POSITION":10,
						"NORMAL":11,
						"TEXCOORD_0":12,
						"TEXCOORD_1":13
					},
					"indices":14,
					"material":0
				}
			]
		}
	],
	"accessors":[
		{
			"bufferView":0,
			"componentType":5126,
			"count":102297,
			"max":[
				31.591787338256836,
				29.46306800842285,
				2.450000047683716
			],
			"min":[
				-31.58277702331543,
				-31.525793075561523,
				-2.450000047683716
			],
			"type":"VEC3"
		},
		{
			"bufferView":1,
			"componentType":5126,
			"count":102297,
			"type":"VEC3"
		},
		{
			"bufferView":2,
			"componentType":5126,
			"count":102297,
			"type":"VEC2"
		},
		{
			"bufferView":3,
			"componentType":5126,
			"count":102297,
			"type":"VEC2"
		},
		{
			"bufferView":4,
			"componentType":5125,
			"count":329358,
			"type":"SCALAR"
		},
		{
			"bufferView":5,
			"componentType":5126,
			"count":4613,
			"max":[
				3.2919857501983643,
				29.24135398864746,
				1.2002159357070923
			],
			"min":[
				-9.994384765625,
				23.93927001953125,
				-1.2002159357070923
			],
			"type":"VEC3"
		},
		{
			"bufferView":6,
			"componentType":5126,
			"count":4613,
			"type":"VEC3"
		},
		{
			"bufferView":7,
			"componentType":5126,
			"count":4613,
			"type":"VEC2"
		},
		{
			"bufferView":8,
			"componentType":5126,
			"count":4613,
			"type":"VEC2"
		},
		{
			"bufferView":9,
			"componentType":5123,
			"count":10167,
			"type":"SCALAR"
		},
		{
			"bufferView":10,
			"componentType":5126,
			"count":4573,
			"max":[
				9.994397163391113,
				33.958587646484375,
				1.2002159357070923
			],
			"min":[
				-9.995572090148926,
				23.93927001953125,
				-1.2002159357070923
			],
			"type":"VEC3"
		},
		{
			"bufferView":11,
			"componentType":5126,
			"count":4573,
			"type":"VEC3"
		},
		{
			"bufferView":12,
			"componentType":5126,
			"count":4573,
			"type":"VEC2"
		},
		{
			"bufferView":13,
			"componentType":5126,
			"count":4573,
			"type":"VEC2"
		},
		{
			"bufferView":14,
			"componentType":5123,
			"count":10839,
			"type":"SCALAR"
		},
		{
			"bufferView":15,
			"componentType":5126,
			"count":180,
			"max":[
				6
			],
			"min":[
				0.03333333333333333
			],
			"type":"SCALAR"
		},
		{
			"bufferView":16,
			"componentType":5126,
			"count":180,
			"type":"VEC4"
		},
		{
			"bufferView":17,
			"componentType":5126,
			"count":180,
			"type":"VEC4"
		},
		{
			"bufferView":18,
			"componentType":5126,
			"count":180,
			"type":"VEC4"
		}
	],
	"bufferViews":[
		{
			"buffer":0,
			"byteLength":1227564,
			"byteOffset":0,
			"target":34962
		},
		{
			"buffer":0,
			"byteLength":1227564,
			"byteOffset":1227564,
			"target":34962
		},
		{
			"buffer":0,
			"byteLength":818376,
			"byteOffset":2455128,
			"target":34962
		},
		{
			"buffer":0,
			"byteLength":818376,
			"byteOffset":3273504,
			"target":34962
		},
		{
			"buffer":0,
			"byteLength":1317432,
			"byteOffset":4091880,
			"target":34963
		},
		{
			"buffer":0,
			"byteLength":55356,
			"byteOffset":5409312,
			"target":34962
		},
		{
			"buffer":0,
			"byteLength":55356,
			"byteOffset":5464668,
			"target":34962
		},
		{
			"buffer":0,
			"byteLength":36904,
			"byteOffset":5520024,
			"target":34962
		},
		{
			"buffer":0,
			"byteLength":36904,
			"byteOffset":5556928,
			"target":34962
		},
		{
			"buffer":0,
			"byteLength":20334,
			"byteOffset":5593832,
			"target":34963
		},
		{
			"buffer":0,
			"byteLength":54876,
			"byteOffset":5614168,
			"target":34962
		},
		{
			"buffer":0,
			"byteLength":54876,
			"byteOffset":5669044,
			"target":34962
		},
		{
			"buffer":0,
			"byteLength":36584,
			"byteOffset":5723920,
			"target":34962
		},
		{
			"buffer":0,
			"byteLength":36584,
			"byteOffset":5760504,
			"target":34962
		},
		{
			"buffer":0,
			"byteLength":21678,
			"byteOffset":5797088,
			"target":34963
		},
		{
			"buffer":0,
			"byteLength":720,
			"byteOffset":5818768
		},
		{
			"buffer":0,
			"byteLength":2880,
			"byteOffset":5819488
		},
		{
			"buffer":0,
			"byteLength":2880,
			"byteOffset":5822368
		},
		{
			"buffer":0,
			"byteLength":2880,
			"byteOffset":5825248
		}
	],
	"buffers":[
		{
			"byteLength":5828128,
			"uri":"Element%20Ritik.bin"
		}
	]
}
