{
	"asset":{
		"generator":"Khronos glTF Blender I/O v4.2.57",
		"version":"2.0"
	},
	"scene":0,
	"scenes":[
		{
			"name":"Combined",
			"nodes":[
				0,
				1,
				2,
				3
			]
		}
	],
	"nodes":[
		{
			"mesh":0,
			"name":"R1",
			"rotation":[
				0.7071068286895752,
				0,
				0,
				0.7071068286895752
			]
		},
		{
			"mesh":1,
			"name":"Hooktop",
			"rotation":[
				0.7071068286895752,
				0,
				0,
				0.7071068286895752
			],
			"scale":[
				0.7493650913238525,
				0.7493650913238525,
				0.7493650913238525
			]
		},
		{
			"mesh":2,
			"name":"L1",
			"rotation":[
				0,
				0.7071068286895752,
				-0.7071068286895752,
				1.1520234011186403e-07
			]
		},
		{
			"mesh":3,
			"name":"HookBotm",
			"rotation":[
				0.7071068286895752,
				0,
				0,
				0.7071068286895752
			],
			"scale":[
				0.7493650913238525,
				0.7493650913238525,
				0.7493650913238525
			],
			"translation":[
				0,
				0,
				-3.814697265625e-06
			]
		}
	],
	"animations":[
		{
			"channels":[
				{
					"sampler":0,
					"target":{
						"node":0,
						"path":"rotation"
					}
				}
			],
			"name":"R1Action",
			"samplers":[
				{
					"input":16,
					"interpolation":"LINEAR",
					"output":17
				}
			]
		},
		{
			"channels":[
				{
					"sampler":0,
					"target":{
						"node":1,
						"path":"rotation"
					}
				}
			],
			"name":"HooktopAction",
			"samplers":[
				{
					"input":16,
					"interpolation":"LINEAR",
					"output":18
				}
			]
		},
		{
			"channels":[
				{
					"sampler":0,
					"target":{
						"node":2,
						"path":"rotation"
					}
				}
			],
			"name":"L1Action",
			"samplers":[
				{
					"input":16,
					"interpolation":"LINEAR",
					"output":19
				}
			]
		},
		{
			"channels":[
				{
					"sampler":0,
					"target":{
						"node":3,
						"path":"rotation"
					}
				}
			],
			"name":"HookBotmAction",
			"samplers":[
				{
					"input":16,
					"interpolation":"LINEAR",
					"output":20
				}
			]
		}
	],
	"materials":[
		{
			"doubleSided":true,
			"name":"Silver",
			"pbrMetallicRoughness":{
				"baseColorFactor":[
					0.5225029587745667,
					0.5225029587745667,
					0.5225029587745667,
					1
				],
				"metallicFactor":0.8911917209625244,
				"roughnessFactor":0.15803109109401703
			}
		},
		{
			"doubleSided":true,
			"name":"Gold",
			"pbrMetallicRoughness":{
				"baseColorFactor":[
					0.8000315427780151,
					0.7115368843078613,
					0.18877170979976654,
					1
				],
				"metallicFactor":0.8500000238418579,
				"roughnessFactor":0.30000001192092896
			}
		}
	],
	"meshes":[
		{
			"name":"CH03_CHAIN.001",
			"primitives":[
				{
					"attributes":{
						"POSITION":0,
						"NORMAL":1,
						"TEXCOORD_0":2
					},
					"indices":3,
					"material":0
				}
			]
		},
		{
			"name":"CH03.004",
			"primitives":[
				{
					"attributes":{
						"POSITION":4,
						"NORMAL":5,
						"TEXCOORD_0":6
					},
					"indices":7,
					"material":0
				}
			]
		},
		{
			"name":"CH03_CHAIN.002",
			"primitives":[
				{
					"attributes":{
						"POSITION":8,
						"NORMAL":9,
						"TEXCOORD_0":10
					},
					"indices":11,
					"material":1
				}
			]
		},
		{
			"name":"CH03.005",
			"primitives":[
				{
					"attributes":{
						"POSITION":12,
						"NORMAL":13,
						"TEXCOORD_0":14
					},
					"indices":15,
					"material":1
				}
			]
		}
	],
	"accessors":[
		{
			"bufferView":0,
			"componentType":5126,
			"count":191870,
			"max":[
				-5.66541862487793,
				61.82435607910156,
				1.9016250371932983
			],
			"min":[
				-62.64189910888672,
				-61.68274688720703,
				-1.8837339878082275
			],
			"type":"VEC3"
		},
		{
			"bufferView":1,
			"componentType":5126,
			"count":191870,
			"type":"VEC3"
		},
		{
			"bufferView":2,
			"componentType":5126,
			"count":191870,
			"type":"VEC2"
		},
		{
			"bufferView":3,
			"componentType":5125,
			"count":476904,
			"type":"SCALAR"
		},
		{
			"bufferView":4,
			"componentType":5126,
			"count":22386,
			"max":[
				8.588973045349121,
				-74.72261047363281,
				1.6237421035766602
			],
			"min":[
				-11.543636322021484,
				-84.98734283447266,
				-0.9815414547920227
			],
			"type":"VEC3"
		},
		{
			"bufferView":5,
			"componentType":5126,
			"count":22386,
			"type":"VEC3"
		},
		{
			"bufferView":6,
			"componentType":5126,
			"count":22386,
			"type":"VEC2"
		},
		{
			"bufferView":7,
			"componentType":5123,
			"count":48564,
			"type":"SCALAR"
		},
		{
			"bufferView":8,
			"componentType":5126,
			"count":207813,
			"max":[
				-3.1649982929229736,
				61.82435607910156,
				1.9016250371932983
			],
			"min":[
				-60.1414794921875,
				-61.68274688720703,
				-1.8837339878082275
			],
			"type":"VEC3"
		},
		{
			"bufferView":9,
			"componentType":5126,
			"count":207813,
			"type":"VEC3"
		},
		{
			"bufferView":10,
			"componentType":5126,
			"count":207813,
			"type":"VEC2"
		},
		{
			"bufferView":11,
			"componentType":5125,
			"count":476904,
			"type":"SCALAR"
		},
		{
			"bufferView":12,
			"componentType":5126,
			"count":22230,
			"max":[
				8.278680801391602,
				85.25007629394531,
				1.6237542629241943
			],
			"min":[
				-11.853928565979004,
				74.98534393310547,
				-0.9815293550491333
			],
			"type":"VEC3"
		},
		{
			"bufferView":13,
			"componentType":5126,
			"count":22230,
			"type":"VEC3"
		},
		{
			"bufferView":14,
			"componentType":5126,
			"count":22230,
			"type":"VEC2"
		},
		{
			"bufferView":15,
			"componentType":5123,
			"count":48564,
			"type":"SCALAR"
		},
		{
			"bufferView":16,
			"componentType":5126,
			"count":180,
			"max":[
				6
			],
			"min":[
				0.03333333333333333
			],
			"type":"SCALAR"
		},
		{
			"bufferView":17,
			"componentType":5126,
			"count":180,
			"type":"VEC4"
		},
		{
			"bufferView":18,
			"componentType":5126,
			"count":180,
			"type":"VEC4"
		},
		{
			"bufferView":19,
			"componentType":5126,
			"count":180,
			"type":"VEC4"
		},
		{
			"bufferView":20,
			"componentType":5126,
			"count":180,
			"type":"VEC4"
		}
	],
	"bufferViews":[
		{
			"buffer":0,
			"byteLength":2302440,
			"byteOffset":0,
			"target":34962
		},
		{
			"buffer":0,
			"byteLength":2302440,
			"byteOffset":2302440,
			"target":34962
		},
		{
			"buffer":0,
			"byteLength":1534960,
			"byteOffset":4604880,
			"target":34962
		},
		{
			"buffer":0,
			"byteLength":1907616,
			"byteOffset":6139840,
			"target":34963
		},
		{
			"buffer":0,
			"byteLength":268632,
			"byteOffset":8047456,
			"target":34962
		},
		{
			"buffer":0,
			"byteLength":268632,
			"byteOffset":8316088,
			"target":34962
		},
		{
			"buffer":0,
			"byteLength":179088,
			"byteOffset":8584720,
			"target":34962
		},
		{
			"buffer":0,
			"byteLength":97128,
			"byteOffset":8763808,
			"target":34963
		},
		{
			"buffer":0,
			"byteLength":2493756,
			"byteOffset":8860936,
			"target":34962
		},
		{
			"buffer":0,
			"byteLength":2493756,
			"byteOffset":11354692,
			"target":34962
		},
		{
			"buffer":0,
			"byteLength":1662504,
			"byteOffset":13848448,
			"target":34962
		},
		{
			"buffer":0,
			"byteLength":1907616,
			"byteOffset":15510952,
			"target":34963
		},
		{
			"buffer":0,
			"byteLength":266760,
			"byteOffset":17418568,
			"target":34962
		},
		{
			"buffer":0,
			"byteLength":266760,
			"byteOffset":17685328,
			"target":34962
		},
		{
			"buffer":0,
			"byteLength":177840,
			"byteOffset":17952088,
			"target":34962
		},
		{
			"buffer":0,
			"byteLength":97128,
			"byteOffset":18129928,
			"target":34963
		},
		{
			"buffer":0,
			"byteLength":720,
			"byteOffset":18227056
		},
		{
			"buffer":0,
			"byteLength":2880,
			"byteOffset":18227776
		},
		{
			"buffer":0,
			"byteLength":2880,
			"byteOffset":18230656
		},
		{
			"buffer":0,
			"byteLength":2880,
			"byteOffset":18233536
		},
		{
			"buffer":0,
			"byteLength":2880,
			"byteOffset":18236416
		}
	],
	"buffers":[
		{
			"byteLength":18239296,
			"uri":"Forpresentation.bin"
		}
	]
}
